<svg width="341" height="250" viewBox="0 0 341 250" fill="none" xmlns="http://www.w3.org/2000/svg">
<path d="M134.661 187.296V164.863L72.3325 182.537C72.3325 182.537 76.9381 155.777 109.444 146.556C119.302 143.762 127.713 143.781 134.661 145.123V53.11H165.869C162.471 42.61 159.184 34.526 156.423 28.909C151.856 19.612 147.174 25.775 136.545 34.665C129.059 40.919 110.139 54.261 81.6681 61.933C53.1967 69.61 30.1791 67.574 20.5753 65.911C6.9602 63.562 -0.161197 60.572 0.505003 70.928C1.0848 80.062 3.2606 94.224 8.2446 112.928C19.0273 153.433 54.6631 231.481 122.01 213.342C139.602 208.602 152.019 199.233 160.626 187.291H134.661V187.296ZM34.0849 113.484L81.9461 100.876C81.9461 100.876 80.5511 119.288 62.6088 124.018C44.6615 128.743 34.0849 113.484 34.0849 113.484Z" fill="#E2574C"/>
<path d="M314.786 54.174C302.345 56.355 272.498 59.072 235.612 49.185C198.716 39.304 174.236 22.0224 164.537 13.8994C150.788 2.3834 144.74 -5.61979 138.788 6.48571C133.526 17.163 126.797 34.54 120.284 58.866C106.171 111.543 95.6231 222.706 182.867 246.098C270.093 269.47 316.53 167.92 330.644 115.238C337.157 90.917 340.013 72.5 340.799 60.625C341.695 47.173 332.455 51.078 314.786 54.174ZM139.497 97.756C139.497 97.756 153.246 76.372 176.565 83C199.899 89.628 201.706 115.425 201.706 115.425L139.497 97.756ZM196.42 193.713C155.403 181.698 149.077 148.99 149.077 148.99L259.262 179.796C259.262 179.791 237.021 205.578 196.42 193.713ZM235.377 126.495C235.377 126.495 249.107 105.126 272.422 111.773C295.736 118.411 297.572 144.208 297.572 144.208L235.377 126.495Z" fill="#2EAD33"/>
<path d="M112.88 171.04L72.3324 182.532C72.3324 182.532 76.737 157.44 106.607 147.496L83.647 61.33L81.663 61.933C53.1918 69.611 30.1742 67.5739 20.5704 65.9109C6.95541 63.5629 -0.165992 60.572 0.500108 70.929C1.08001 80.063 3.25571 94.224 8.23971 112.929C19.0225 153.433 54.6583 231.481 122.005 213.342L123.989 212.719L112.88 171.04ZM34.0848 113.485L81.946 100.876C81.946 100.876 80.551 119.288 62.6087 124.018C44.6615 128.743 34.0848 113.485 34.0848 113.485Z" fill="#D65348"/>
<path d="M198.27 194.163L196.415 193.712C155.398 181.698 149.072 148.99 149.072 148.99L205.89 164.872L235.971 49.281L235.607 49.185C198.711 39.304 174.232 22.0224 164.532 13.8994C150.783 2.3834 144.735 -5.61979 138.783 6.48571C133.526 17.163 126.797 34.54 120.284 58.866C106.171 111.543 95.6231 222.706 182.867 246.097L184.655 246.5L198.27 194.163ZM139.497 97.756C139.497 97.756 153.246 76.372 176.565 83C199.899 89.628 201.706 115.425 201.706 115.425L139.497 97.756Z" fill="#1D8D22"/>
<path d="M114.946 170.451L104.072 173.537C106.641 188.019 111.169 201.917 118.276 214.195C119.513 213.922 120.74 213.687 122 213.342C125.302 212.451 128.364 211.348 131.312 210.145C123.371 198.361 118.118 184.789 114.946 170.451ZM110.7 68.451C105.112 89.307 100.113 119.326 101.489 149.436C103.952 148.367 106.554 147.371 109.444 146.551L111.457 146.101C109.003 113.939 114.308 81.165 120.284 58.866C121.799 53.225 123.318 47.978 124.832 43.085C122.393 44.637 119.767 46.228 116.776 47.867C114.759 54.093 112.722 60.898 110.7 68.451Z" fill="#C04B41"/>
</svg>
